<?xml version="1.0" encoding="utf-8"?>
<!-- Generator: Adobe Illustrator 16.0.0, SVG Export Plug-In . SVG Version: 6.00 Build 0)  -->
<!DOCTYPE svg PUBLIC "-//W3C//DTD SVG 1.1//EN" "http://www.w3.org/Graphics/SVG/1.1/DTD/svg11.dtd">
<svg version="1.1" id="Layer_1" xmlns="http://www.w3.org/2000/svg" xmlns:xlink="http://www.w3.org/1999/xlink" x="0px" y="0px"
	 width="64px" height="64px" viewBox="0 0 64 64" enable-background="new 0 0 64 64" xml:space="preserve">
<g id="Ellipse_10">
	<g>
		<path fill="#83AEDD" d="M32,1C14.879,1,1,14.879,1,32s13.879,31,31,31s31-13.879,31-31S49.121,1,32,1z M32,59
			C17.088,59,5,46.912,5,32S17.088,5,32,5s27,12.088,27,27S46.912,59,32,59z"/>
	</g>
</g>
<g id="Ellipse_13">
	<g>
		<circle fill="#FFFFFF" cx="32" cy="32" r="27"/>
	</g>
</g>
<g id="Ellipse_16">
	<g>
		<circle fill="#83AEDD" cx="32" cy="32" r="13"/>
	</g>
</g>
<g id="Ellipse_15">
	<g>
		<path fill="#2B3139" d="M32,18c-7.732,0-14,6.268-14,14s6.268,14,14,14s14-6.268,14-14S39.732,18,32,18z M32,44
			c-6.628,0-12-5.373-12-12c0-6.628,5.372-12,12-12c6.627,0,12,5.372,12,12C44,38.627,38.627,44,32,44z"/>
	</g>
</g>
<g id="Rectangle_91">
	<g>
		<rect x="30" y="9" fill="#8291A3" width="4" height="23"/>
	</g>
</g>
<g id="Rectangle_92">
	<g>
		<rect x="34" y="30" fill="#8291A3" width="15" height="4"/>
	</g>
</g>
<g id="Ellipse_9">
	<g>
		<path fill="#2B3139" d="M32,52c-0.553,0-1,0.447-1,1v2c0,0.552,0.447,1,1,1s1-0.448,1-1v-2C33,52.447,32.553,52,32,52z
			 M47.48,17.737l1.246-1.246c0.344-0.344,0.344-0.901,0-1.245s-0.901-0.344-1.246,0l-1.245,1.245c-0.344,0.345-0.344,0.902,0,1.246
			S47.137,18.081,47.48,17.737z M16.491,17.737c0.345,0.344,0.902,0.344,1.246,0s0.344-0.901,0-1.246l-1.246-1.245
			c-0.344-0.344-0.901-0.344-1.245,0s-0.344,0.901,0,1.245L16.491,17.737z M11,31H9c-0.553,0-1,0.447-1,1c0,0.552,0.447,1,1,1h2
			c0.553,0,1-0.448,1-1C12,31.447,11.553,31,11,31z M32,4C16.536,4,4,16.536,4,32s12.536,28,28,28s28-12.536,28-28S47.464,4,32,4z
			 M32,58C17.641,58,6,46.359,6,32S17.641,6,32,6s26,11.641,26,26S46.359,58,32,58z M32,0C14.327,0,0,14.327,0,32s14.327,32,32,32
			s32-14.327,32-32S49.673,0,32,0z M32,62C15.432,62,2,48.568,2,32S15.432,2,32,2s30,13.432,30,30S48.568,62,32,62z M55,31h-2
			c-0.553,0-1,0.447-1,1c0,0.552,0.447,1,1,1h2c0.553,0,1-0.448,1-1C56,31.447,55.553,31,55,31z M48,29H36.455l3.243-3.24
			c0.405-0.403,0.405-1.057,0-1.46s-1.063-0.403-1.47,0L35,27.526V10c0-1.104-0.896-2-2-2h-2c-1.104,0-2,0.896-2,2v23
			c0,0.16,0.023,0.313,0.059,0.462L15.29,47.22c-0.405,0.402-0.405,1.057,0,1.46c0.406,0.402,1.063,0.402,1.47,0l13.756-13.745
			C30.672,34.974,30.832,35,31,35h17c1.104,0,2-0.896,2-2v-2C50,29.896,49.104,29,48,29z M31,10h2v19.524l-2,1.999V10z M48,33
			H32.452l2.002-2H48V33z M47.48,46.235c-0.344-0.344-0.901-0.344-1.245,0s-0.344,0.901,0,1.245l1.245,1.246
			c0.345,0.344,0.902,0.344,1.246,0s0.344-0.901,0-1.246L47.48,46.235z"/>
	</g>
</g>
<g id="Ellipse_14">
	<g>
		<circle fill="#CBD6E4" cx="32" cy="32" r="4"/>
	</g>
</g>
<g id="Ellipse_11">
	<g>
		<path fill="#2B3139" d="M32,27c-2.762,0-5,2.238-5,5s2.238,5,5,5s5-2.238,5-5S34.762,27,32,27z M32,35c-1.657,0-3-1.343-3-3
			s1.343-3,3-3s3,1.343,3,3S33.657,35,32,35z"/>
	</g>
</g>
</svg>
