<?xml version="1.0" encoding="utf-8"?>
<!-- Generator: Adobe Illustrator 16.0.0, SVG Export Plug-In . SVG Version: 6.00 Build 0)  -->
<!DOCTYPE svg PUBLIC "-//W3C//DTD SVG 1.1//EN" "http://www.w3.org/Graphics/SVG/1.1/DTD/svg11.dtd">
<svg version="1.1" id="Layer_1" xmlns="http://www.w3.org/2000/svg" xmlns:xlink="http://www.w3.org/1999/xlink" x="0px" y="0px"
	 width="48px" height="48px" viewBox="0 0 48 48" enable-background="new 0 0 48 48" xml:space="preserve">
<g id="icomoon-ignore">
	<line fill="#FFFFFF" stroke="#449FDB" x1="0" y1="0" x2="0" y2="0"/>
</g>
<path fill="#FFFFFF" d="M20.762,16.978c1.326,0,2.446,0.552,3.154,1.56c1.708,2.432,0.342,6.78-0.116,8.052l-1.596,5.246
	c1.088,1.202,2.298,1.202,2.782,1.202c4.602,0,9.974-2.62,9.974-10c0-5.806-3.124-12.06-9.978-12.06
	c-4.172,0-12.063,2.102-12.063,10.06c0,3.102,1.002,5.34,2.75,6.138c0.336,0.156,0.61,0.391,0.808,0.676
	c-0.104-0.787-0.158-1.602-0.158-2.43C16.32,21.22,17.694,16.978,20.762,16.978z"/>
<path fill="#FFFFFF" d="M24.002-0.084C10.7-0.084-0.082,10.698-0.082,24c0,9.643,5.68,17.936,13.864,21.784l4.054-13.32
	c-0.452-0.884-0.808-1.888-1.062-2.968c-0.03,0.118-0.07,0.227-0.12,0.34c-0.458,1.004-1.648,1.444-2.652,0.984
	c-3.23-1.48-5.084-5.043-5.084-9.78c0-10.316,9.606-14.06,16.063-14.06c9.176,0,13.978,8.08,13.978,16.06
	c0,9.672-7.019,14-13.974,14c-1.486,0-2.851-0.376-4.032-1.095L17.536,47.18c2.06,0.574,4.222,0.902,6.464,0.902
	c13.3,0,24.084-10.784,24.084-24.082C48.084,10.698,37.3-0.084,24.002-0.084z"/>
</svg>
