<?xml version="1.0" encoding="utf-8"?>
<!-- Generator: Adobe Illustrator 16.0.0, SVG Export Plug-In . SVG Version: 6.00 Build 0)  -->
<!DOCTYPE svg PUBLIC "-//W3C//DTD SVG 1.1//EN" "http://www.w3.org/Graphics/SVG/1.1/DTD/svg11.dtd">
<svg version="1.1" id="Layer_1" xmlns="http://www.w3.org/2000/svg" xmlns:xlink="http://www.w3.org/1999/xlink" x="0px" y="0px"
	 width="48px" height="48px" viewBox="0 0 48 48" enable-background="new 0 0 48 48" xml:space="preserve">
<g id="icomoon-ignore">
	<line fill="#FFFFFF" stroke="#449FDB" x1="0" y1="0" x2="0" y2="0"/>
</g>
<path fill="#FFFFFF" d="M43,0H5C2.246,0,0,2.242,0,5v38c0,2.758,2.246,5,5,5h22c0.552,0,1-0.45,1-1V29c0-0.55-0.448-1-1-1h-7v-4h7
	c0.552,0,1-0.45,1-1v-8c0-3.942,4.3-7,8-7h4v4h-2c-2.887,0-6,1.72-6,4.5V23c0,0.55,0.45,1,1,1h6.613l-1.336,4H33
	c-0.552,0-1,0.45-1,1v18c0,0.55,0.448,1,1,1h10c2.754,0,5-2.242,5-5V5C48,2.242,45.758,0,43,0z"/>
</svg>
