<?xml version="1.0" encoding="utf-8"?>
<!-- Generator: Adobe Illustrator 16.0.0, SVG Export Plug-In . SVG Version: 6.00 Build 0)  -->
<!DOCTYPE svg PUBLIC "-//W3C//DTD SVG 1.1//EN" "http://www.w3.org/Graphics/SVG/1.1/DTD/svg11.dtd">
<svg version="1.1" id="Layer_1" xmlns="http://www.w3.org/2000/svg" xmlns:xlink="http://www.w3.org/1999/xlink" x="0px" y="0px"
	 width="48px" height="48px" viewBox="0 0 48 48" enable-background="new 0 0 48 48" xml:space="preserve">
<g id="icomoon-ignore">
	<line fill="#FFFFFF" stroke="#449FDB" x1="0" y1="0" x2="0" y2="0"/>
</g>
<path fill="#FFFFFF" d="M14,14h3.38c1.9-1.262,4.174-2,6.62-2c2.445,0,4.718,0.738,6.622,2H48V7c0-3.86-3.141-7-7-7H14V14z M34,5
	c0-0.55,0.45-1,1-1h6c0.55,0,1,0.45,1,1v6c0,0.55-0.45,1-1,1h-6c-0.55,0-1-0.45-1-1V5z"/>
<path fill="#FFFFFF" d="M28.5,24c0,2.484-2.016,4.5-4.5,4.5c-2.485,0-4.5-2.016-4.5-4.5c0-2.485,2.015-4.5,4.5-4.5
	C26.484,19.5,28.5,21.515,28.5,24z"/>
<path fill="#FFFFFF" d="M36,6h4v4h-4V6z"/>
<path fill="#FFFFFF" d="M32.918,16C34.828,18.126,36,20.926,36,24c0,6.618-5.382,12-12,12s-12-5.382-12-12
	c0-3.074,1.172-5.876,3.082-8H0v25c0,3.859,3.14,7,7,7h34c3.859,0,7-3.141,7-7V16H32.918z"/>
<path fill="#FFFFFF" d="M8,0h4v14H8V0z"/>
<path fill="#FFFFFF" d="M24,34c5.514,0,10-4.484,10-10c0-5.514-4.486-10-10-10c-5.514,0-10,4.486-10,10C14,29.516,18.486,34,24,34z
	 M24,17.5c3.584,0,6.5,2.916,6.5,6.5s-2.916,6.5-6.5,6.5s-6.5-2.916-6.5-6.5S20.416,17.5,24,17.5z"/>
<path fill="#FFFFFF" d="M6,14V0.102C2.618,0.592,0,3.484,0,7v7H6z"/>
</svg>
