<?xml version="1.0" encoding="utf-8"?>
<!-- Generator: Adobe Illustrator 16.0.0, SVG Export Plug-In . SVG Version: 6.00 Build 0)  -->
<!DOCTYPE svg PUBLIC "-//W3C//DTD SVG 1.1//EN" "http://www.w3.org/Graphics/SVG/1.1/DTD/svg11.dtd">
<svg version="1.1" id="Layer_1" xmlns="http://www.w3.org/2000/svg" xmlns:xlink="http://www.w3.org/1999/xlink" x="0px" y="0px"
	 width="64px" height="64px" viewBox="0 0 64 64" enable-background="new 0 0 64 64" xml:space="preserve">
<g id="Rectangle_34">
	<g>
		<polygon fill="#FFFFFF" points="43,17 21,11 1,17 1,63 21,57 43,63 63,57 63,11 		"/>
	</g>
</g>
<g id="Rectangle_35">
	<g>
		<polygon fill="#D0D8E9" points="21,16 5,20 5,57 21,53 30,55 41,21 		"/>
	</g>
</g>
<g id="Rectangle_36">
	<g>
		<polygon fill="#87C87D" points="43,22 41,21 35.812,36.875 43,39 59,34 59,17 		"/>
	</g>
</g>
<g id="Rectangle_38">
	<g>
		<polygon fill="#93D0F2" points="43,43 35,41 30,55 43,59 59,54 59,38 		"/>
	</g>
</g>
<g id="Rectangle_37">
	<g>
		<polygon fill="#F8E292" points="43,39 35.915,37.067 41.104,21.39 37,20 31.808,35.947 21,33 5,38 5,42 21,37 30.611,39.621 
			26,54 30,55 34.7,40.736 43,43 59,38 59,34 		"/>
	</g>
</g>
<g id="Rounded_Rectangle_28">
	<g>
		<path fill="#2B3139" d="M63.986,10.931c-0.006-0.047,0.003-0.093-0.008-0.14c-0.008-0.03-0.027-0.052-0.037-0.081
			c-0.023-0.075-0.055-0.143-0.095-0.21c-0.029-0.051-0.059-0.098-0.096-0.142c-0.038-0.045-0.08-0.083-0.126-0.121
			c-0.061-0.052-0.122-0.095-0.192-0.13c-0.037-0.018-0.075-0.03-0.115-0.043c-0.076-0.026-0.151-0.044-0.233-0.048
			C63.055,10.015,63.03,10,63,10c-0.061,0-0.114,0.024-0.172,0.035c-0.012,0.003-0.023-0.002-0.035,0.002l-0.052,0.016
			c-0.055,0.015-0.11,0.022-0.161,0.047L42.986,15.82l-21.58-5.73C21.281,10.034,21.146,10,21,10c-0.151,0-0.291,0.039-0.42,0.1
			L0.706,15.902c-0.44,0.13-0.71,0.577-0.698,1.059C0.007,16.975,0,16.986,0,17v45.779c-0.002,0.015,0.001,0.029,0,0.045V63
			c0,0.024,0.012,0.045,0.014,0.069c0.006,0.047-0.003,0.092,0.008,0.14c0.008,0.03,0.027,0.052,0.037,0.081
			c0.023,0.075,0.055,0.143,0.095,0.21c0.029,0.051,0.059,0.098,0.096,0.142c0.038,0.045,0.08,0.083,0.126,0.12
			c0.061,0.053,0.122,0.096,0.192,0.131c0.037,0.018,0.075,0.03,0.115,0.043c0.076,0.026,0.151,0.044,0.233,0.048
			C0.945,63.985,0.97,64,1,64c0.061,0,0.114-0.024,0.172-0.035c0.012-0.003,0.023,0.002,0.035-0.002l0.052-0.015
			c0.055-0.016,0.11-0.023,0.161-0.048l19.594-5.721l21.58,5.73C42.719,63.966,42.854,64,43,64c0.151,0,0.291-0.039,0.42-0.1
			l19.874-5.803c0.44-0.13,0.71-0.577,0.698-1.059C63.993,57.025,64,57.014,64,57V11.221c0.002-0.015-0.001-0.029,0-0.045V11
			C64,10.976,63.988,10.955,63.986,10.931z M20,51.866L6,55.728v-13.04l14-4.375V51.866z M20,36.312L6,40.688v-2l14-4.375V36.312z
			 M20,32.312L6,36.688V20.759l14-3.861V32.312z M20,14.866L5.007,19.001C5.004,19.001,5.002,19,5,19
			c-0.371,0-0.682,0.211-0.854,0.512c-0.009,0.015-0.021,0.027-0.028,0.042c-0.031,0.061-0.048,0.125-0.065,0.191
			c-0.023,0.074-0.042,0.147-0.046,0.228C4.005,19.982,4,19.99,4,20v37c0,0.019,0.01,0.033,0.011,0.052
			c0.001,0.077-0.007,0.152,0.014,0.23c0.116,0.434,0.506,0.704,0.932,0.709C4.972,57.992,4.984,58,5,58
			c0.03,0,0.055-0.015,0.084-0.017c0.046-0.006,0.09,0.003,0.135-0.009L20,53.897v2.371L2,61.524V17.731l18-5.256V14.866z M22,16.79
			l13.843,3.87l-4.654,14.118L22,32.272V16.79z M22,38.272l7.395,2.017l-4.182,12.548L22,51.867V38.272z M42,61.559l-20-5.311V53.79
			l20,5.593V61.559z M42,57.46l-10.69-2.918l4.193-12.587L42,43.728V57.46z M42,41.728l-7.944-2.167l-4.8,14.407l-2.106-0.589
			l4.88-14.371L22,36.272v-2l10.635,2.9l5.292-15.912l1.909,0.533l-5.182,15.93L42,39.728V41.728z M42,37.728l-4.703-1.283
			l4.578-14.069L42,22.383V37.728z M42,20.46l-20-5.593v-2.426l20,5.311V20.46z M44,22.409l14-4.151v15.055l-14,4.375V22.409z
			 M44,39.688l14-4.375v2l-14,4.375V39.688z M44,43.688l14-4.375v13.903l-14,4.151V43.688z M62,56.269l-18,5.256v-2.115
			l14.922-4.425C58.949,54.986,58.973,55,59,55c0.498,0,0.893-0.37,0.969-0.847c0.011-0.046,0.023-0.089,0.027-0.136
			C59.996,54.012,60,54.006,60,54V17c0-0.012-0.006-0.021-0.007-0.033c0.004-0.096,0.008-0.192-0.018-0.29
			c-0.14-0.522-0.675-0.833-1.194-0.693L44,20.367v-2.636l18-5.256V56.269z"/>
	</g>
</g>
<g id="Rectangle_83">
	<g>
		<path fill="#F27070" d="M34,0.5c-7.446,0.013-13.5,6.314-13.5,13.44c0,11.372,11.129,17.008,13.262,17.566
			c0.165,0,0.149,0,0.477,0C36.339,30.948,47.5,25.312,47.5,13.94C47.5,6.814,41.446,0.513,34,0.5z M34,19.5
			c-3.037,0-5.5-2.463-5.5-5.5s2.463-5.5,5.5-5.5s5.5,2.463,5.5,5.5S37.037,19.5,34,19.5z"/>
	</g>
</g>
<g id="Rectangle_84">
	<g>
		<path fill="#2B3139" d="M34,0c-7.733,0.01-14,6.314-14,14c0,11,10.039,16.54,13.018,17.831C33.276,31.943,33.551,32,33.825,32
			c0.059,0,0.116-0.013,0.175-0.018C34.059,31.987,34.116,32,34.175,32c0.274,0,0.549-0.057,0.808-0.169
			C37.961,30.54,48,25.05,48,14C48,6.314,41.733,0.01,34,0z M34.212,29.991c-0.291,0-0.277,0-0.424,0
			C31.893,29.487,22,24.4,22,14.133C22,7.7,27.381,2.012,34,2c6.619,0.012,12,5.7,12,12.133C46,24.4,36.079,29.487,34.212,29.991z
			 M34,8c-3.313,0-6,2.687-6,6s2.687,6,6,6s6-2.687,6-6S37.313,8,34,8z M34,18c-2.209,0-4-1.791-4-4s1.791-4,4-4s4,1.791,4,4
			S36.209,18,34,18z M34,6c0.553,0,1-0.447,1-1s-0.447-1-1-1c-5.522,0-10,4.478-10,10c0,0.553,0.447,1,1,1s1-0.447,1-1
			C26,9.582,29.582,6,34,6z"/>
	</g>
</g>
</svg>
