<?xml version="1.0" encoding="utf-8"?>
<!-- Generator: Adobe Illustrator 16.0.0, SVG Export Plug-In . SVG Version: 6.00 Build 0)  -->
<!DOCTYPE svg PUBLIC "-//W3C//DTD SVG 1.1//EN" "http://www.w3.org/Graphics/SVG/1.1/DTD/svg11.dtd">
<svg version="1.1" id="Layer_1" xmlns="http://www.w3.org/2000/svg" xmlns:xlink="http://www.w3.org/1999/xlink" x="0px" y="0px"
	 width="64px" height="64px" viewBox="0 0 64 64" enable-background="new 0 0 64 64" xml:space="preserve">
<g id="Rounded_Rectangle_58">
	<g>
		<path fill="#FDD7C4" d="M34,63C33.826,63.099,34.29,63,34,63L34,63z M36,17c-3.602-5.26-3-12-3-12c0-2.209-1.791-4-4-4
			s-4,1.791-4,4v7c0,3.776,1.192,7.888,2.822,11H6c-2.762,0-5,2.238-5,5s2.238,5,5,5h2c-2.762,0-5,2.238-5,5s2.238,5,5,5h2
			c-2.762,0-5,2.238-5,5s2.238,5,5,5h2c-2.762,0-5,2.238-5,5s2.238,5,5,5h22c1.35,0,6.608-1.304,10-3c3.203-1.602,6-4,6-4V30
			C50,30,41.242,24.655,36,17z"/>
	</g>
</g>
<g id="Rectangle_51">
	<g>
		<rect x="51" y="26" fill="#FFFFFF" width="12" height="37"/>
	</g>
</g>
<g id="Ellipse_34">
	<g>
		<circle fill="#83AEDD" cx="57" cy="57" r="2"/>
	</g>
</g>
<g id="Ellipse_5">
	<g>
		<path fill="#2B3139" d="M62,25H52c-1.104,0-2,0.896-2,2v1.767c-2.166-1.388-5.746-3.834-9-6.767c-3.577-3.225-7-12.088-7-17
			c0-2.762-2.238-5-5-5s-5,2.238-5,5c0,0,0,0.038,0,5c0,5.355,1.26,9.641,2.146,12H6c-3.313,0-6,2.687-6,6
			c0,2.584,1.643,4.768,3.934,5.612C2.751,34.708,2,36.261,2,38c0,2.584,1.643,4.768,3.934,5.612C4.751,44.708,4,46.261,4,48
			c0,2.584,1.643,4.768,3.934,5.612C6.751,54.708,6,56.261,6,58c0,3.313,2.687,6,6,6h21c7.964,0,14.58-4.382,17-6.208V62
			c0,1.104,0.896,2,2,2h10c1.104,0,2-0.896,2-2V27C64,25.896,63.104,25,62,25z M50,54.864C46.752,57.952,39.973,62,33,62H12
			c-2.209,0-4-1.791-4-4c0-1.803,1.2-3.309,2.838-3.809c0,0,1.162-0.177,1.162-1.191c0-1.092-1.6-1-1.6-1H10c-2.209,0-4-1.791-4-4
			c0-1.803,1.2-3.309,2.838-3.809c0,0,1.162-0.21,1.162-1.191c0-1.187-1.6-1-1.6-1H8c-2.209,0-4-1.791-4-4
			c0-1.803,1.2-3.309,2.838-3.809c0,0,1.162-0.06,1.162-1.191c0-1.223-1.6-1-1.6-1H6c-2.209,0-4-1.791-4-4s1.791-4,4-4h22
			c0.632,0,1.479-0.475,0.753-1.918C27.381,19.357,26,15.572,26,10c0-3.355,0-5,0-5c0-1.657,1.343-3,3-3s3,1.343,3,3v1
			c0,5.455,3.635,14.092,8,18c4.413,3.951,7.939,6.066,10,7.111V54.864z M62,62H52V30v-3h10V62z M52,30C52.219,30.032,52,30,52,30
			L52,30z M21,52h-4c-0.553,0-1,0.447-1,1s0.447,1,1,1h4c0.553,0,1-0.447,1-1S21.553,52,21,52z M20,43c0-0.553-0.447-1-1-1h-4
			c-0.553,0-1,0.447-1,1s0.447,1,1,1h4C19.553,44,20,43.553,20,43z M18,33c0-0.553-0.447-1-1-1h-4c-0.553,0-1,0.447-1,1s0.447,1,1,1
			h4C17.553,34,18,33.553,18,33z M59,52c0.553,0,1-0.447,1-1V30c0-0.553-0.447-1-1-1s-1,0.447-1,1v21C58,51.553,58.447,52,59,52z
			 M57,60c1.657,0,3-1.344,3-3c0-1.657-1.343-3-3-3s-3,1.343-3,3C54,58.656,55.343,60,57,60z M57,56c0.553,0,1,0.447,1,1
			s-0.447,1-1,1s-1-0.447-1-1S56.447,56,57,56z"/>
	</g>
</g>
</svg>
