<?xml version="1.0" encoding="utf-8"?>
<!-- Generator: Adobe Illustrator 16.0.0, SVG Export Plug-In . SVG Version: 6.00 Build 0)  -->
<!DOCTYPE svg PUBLIC "-//W3C//DTD SVG 1.1//EN" "http://www.w3.org/Graphics/SVG/1.1/DTD/svg11.dtd">
<svg version="1.1" id="Layer_1" xmlns="http://www.w3.org/2000/svg" xmlns:xlink="http://www.w3.org/1999/xlink" x="0px" y="0px"
	 width="48px" height="48px" viewBox="0 0 48 48" enable-background="new 0 0 48 48" xml:space="preserve">
<g id="icomoon-ignore">
	<line fill="#FFFFFF" stroke="#449FDB" x1="0" y1="0" x2="0" y2="0"/>
</g>
<path fill="#FFFFFF" d="M46.736,10.17c-0.305-0.332-0.795-0.42-1.196-0.21c-0.25,0.126-0.72,0.294-1.282,0.46
	c0.706-0.938,1.271-1.984,1.524-2.926c0.108-0.406-0.05-0.836-0.394-1.078c-0.345-0.24-0.803-0.24-1.146,0
	C43.7,6.794,41.084,7.932,39.43,8.298c-3.714-3.254-8.121-3.594-12.611-0.972c-3.676,2.148-4.475,6.51-4.318,9.172
	c-8.412-0.812-13.642-5.256-16.588-8.934C5.708,7.306,5.37,7.17,5.062,7.19C4.734,7.214,4.44,7.396,4.272,7.678
	c-1.394,2.353-1.78,4.95-1.114,7.516c0.366,1.398,1.002,2.634,1.74,3.632c-0.356-0.172-0.694-0.39-1.018-0.652
	c-0.296-0.244-0.708-0.294-1.06-0.13c-0.348,0.168-0.568,0.52-0.568,0.902c0,4.582,2.88,7.418,5.402,8.888
	c-0.448-0.048-0.908-0.148-1.362-0.288c-0.376-0.118-0.784-0.008-1.042,0.29s-0.322,0.704-0.16,1.055
	c1.446,3.201,4.186,5.373,7.578,6.168C9.736,36.782,5.834,37.6,2.116,37.176c-0.472-0.058-0.918,0.118-1.066,0.572
	c-0.144,0.456,0.046,0.716,0.46,0.952c4.928,2.77,9.912,3.716,14.81,3.716h0.002c7.34,0,14.208-2.708,19.342-8.458
	c4.813-5.39,7.34-11.804,6.832-18.046c1.27-0.942,3.172-2.674,4.348-4.532C47.084,11,47.042,10.504,46.736,10.17z"/>
</svg>
